# xmcd
#
# Track frame offsets:
# 150
# 18792
# 39494
# 57007
# 75142
# 94216
# 107126
# 122295
# 140987
# 164262
# 188197
# 206387
# 222552
# 239307
# 261244
# 284649
# 307949
#
# Disc length: 4341 seconds
#
#
# Revision: 0
# Processed by: cddbd v1.5.2PL0 Copyright (c) Steve Scherf et al.
# Submitted via: FreeRIP 2.96 
#
DISCID=e910f311
DTITLE=Various Artist - Play
DYEAR=1998
DGENRE=R&B
TTITLE0=Too Close - Next
TTITLE1=Body Bumpin Yippie-Yi-Yo - Public Announcement
TTITLE2=Lady Marmalade - All Saints
TTITLE3=Dreams - The Corrs
TTITLE4=Swing My Way - KPNU
TTITLE5=All Bout the Money - Meja
TTITLE6=Video Killed the Radio Star - The Presidents of USA
TTITLE7=Turn Back Time - Aqua
TTITLE8=Crazy - Alana Davis
TTITLE9=I Don't Want to Wait - Paula Cole
TTITLE10=The Boy is Mine - Brandy with Monica
TTITLE11=Tender Love - Uncle Sam
TTITLE12=Say You Love Me - Simply Red
TTITLE13=Iris - Goo goo dolls
TTITLE14=Careless Whisper - Tamia
TTITLE15=High - Lighthouse Family
TTITLE16=Heroes - The Wallflowers
EXTD=
EXTT0=
EXTT1=
EXTT2=
EXTT3=
EXTT4=
EXTT5=
EXTT6=
EXTT7=
EXTT8=
EXTT9=
EXTT10=
EXTT11=
EXTT12=
EXTT13=
EXTT14=
EXTT15=
EXTT16=
PLAYORDER=
